<svg fill="none" height="32" width="32" viewBox="0 0 32 32" xmlns="http://www.w3.org/2000/svg">
  
  <circle fill="#0f172a" r="15" cy="16" cx="16"></circle>

  
  <path stroke-width="1.5" stroke="#0f172a" fill="#10b981" d="M10 10 Q8 14 10 18 Q12 22 16 22 Q20 22 22 18 Q24 14 22 10 Q20 8 16 8 Q12 8 10 10 Z"></path>
  
  
  <path stroke-linecap="round" stroke-width="1.2" stroke="#0f172a" d="M12 12 Q14 14 16 12"></path>
  <path stroke-linecap="round" stroke-width="1.2" stroke="#0f172a" d="M16 12 Q18 14 20 12"></path>
  <path stroke-linecap="round" stroke-width="1" stroke="#0f172a" d="M13 16 Q15 17 17 16"></path>
  <path stroke-linecap="round" stroke-width="1" stroke="#0f172a" d="M17 16 Q19 17 21 16"></path>

  
  <g stroke-linecap="round" stroke-width="1.5" stroke="#34d399">
    <line y2="2" x2="16" y1="5" x1="16"></line>
    <line y2="4" x2="25" y1="7" x1="22"></line>
    <line y2="13" x2="28" y1="13" x1="25"></line>
    <line y2="23" x2="25" y1="20" x1="22"></line>
    <line y2="26" x2="16" y1="23" x1="16"></line>
    <line y2="23" x2="7" y1="20" x1="10"></line>
    <line y2="13" x2="4" y1="13" x1="7"></line>
    <line y2="4" x2="7" y1="7" x1="10"></line>
  </g>
</svg>
